HIERARCHY
ROOT Bip001_Pelvis
{
  OFFSET 34.4345 95.6767 -26.8758
  CHANNELS 6 Xposition Yposition Zposition Zrotation Xrotation Yrotation
  JOINT Bip001_Spine
  {
    OFFSET 1.4188e-005 10.2191 -0.0116013
    CHANNELS 3 Zrotation Xrotation Yrotation
    JOINT Bip001_L_Thigh
    {
      OFFSET 11.0458 -10.2192 0.0116197
      CHANNELS 3 Zrotation Xrotation Yrotation
      JOINT Bip001_L_Calf
      {
        OFFSET -0.707118 -44.0221 0.360014
        CHANNELS 3 Zrotation Xrotation Yrotation
        JOINT Bip001_L_Foot
        {
          OFFSET -0.651902 -40.5938 -3.56146
          CHANNELS 3 Zrotation Xrotation Yrotation
          JOINT Bip001_L_Toe0
          {
            OFFSET 0.0530839 -10.2181 13.1504
            CHANNELS 3 Zrotation Xrotation Yrotation
            End Site
            {
              OFFSET -1.02532e-005 0 7.55606
            }
          }
        }
      }
    }
    JOINT Bip001_R_Thigh
    {
      OFFSET -11.0458 -10.2191 0.0115893
      CHANNELS 3 Zrotation Xrotation Yrotation
      JOINT Bip001_R_Calf
      {
        OFFSET 0.706994 -44.0221 0.35984
        CHANNELS 3 Zrotation Xrotation Yrotation
        JOINT Bip001_R_Foot
        {
          OFFSET 0.651786 -40.5938 -3.5613
          CHANNELS 3 Zrotation Xrotation Yrotation
          JOINT Bip001_R_Toe0
          {
            OFFSET -0.0531479 -10.2181 13.1504
            CHANNELS 3 Zrotation Xrotation Yrotation
            End Site
            {
              OFFSET -1.02894e-005 0 7.55606
            }
          }
        }
      }
    }
    JOINT Bip001_Spine1
    {
      OFFSET 1.87041e-005 14.5736 1.08638
      CHANNELS 3 Zrotation Xrotation Yrotation
      JOINT Bip001_Spine2
      {
        OFFSET 2.24614e-005 14.5058 -1.69078
        CHANNELS 3 Zrotation Xrotation Yrotation
        JOINT Bip001_Neck
        {
          OFFSET 2.20278e-005 15.3945 -0.489414
          CHANNELS 3 Zrotation Xrotation Yrotation
          JOINT Bip001_L_Clavicle
          {
            OFFSET 6.06036 -0.000579998 0.00836775
            CHANNELS 3 Zrotation Xrotation Yrotation
            JOINT Bip001_L_UpperArm
            {
              OFFSET 11.5509 -0.0600302 0.00193952
              CHANNELS 3 Zrotation Xrotation Yrotation
              JOINT Bip001_L_Forearm
              {
                OFFSET 25.9523 0.0806089 -2.15551
                CHANNELS 3 Zrotation Xrotation Yrotation
                JOINT Bip001_L_Hand
                {
                  OFFSET 32.2475 0.153767 1.63968
                  CHANNELS 3 Zrotation Xrotation Yrotation
                  JOINT Bip001_L_Finger0
                  {
                    OFFSET 6.04639 -2.20976 5.90322
                    CHANNELS 3 Zrotation Xrotation Yrotation
                    End Site
                    {
                      OFFSET 4.22375 -1.43895 0.606485
                    }
                  }
                  JOINT Bip001_L_Finger1
                  {
                    OFFSET 11.0826 -0.704819 -0.198153
                    CHANNELS 3 Zrotation Xrotation Yrotation
                    End Site
                    {
                      OFFSET 6.20027 -0.397518 -0.0787166
                    }
                  }
                }
              }
            }
          }
          JOINT Bip001_R_Clavicle
          {
            OFFSET -6.06037 -0.000563197 0.00835105
            CHANNELS 3 Zrotation Xrotation Yrotation
            JOINT Bip001_R_UpperArm
            {
              OFFSET -11.5509 -0.0599978 0.00190698
              CHANNELS 3 Zrotation Xrotation Yrotation
              JOINT Bip001_R_Forearm
              {
                OFFSET -25.9523 0.0806822 -2.15589
                CHANNELS 3 Zrotation Xrotation Yrotation
                JOINT Bip001_R_Hand
                {
                  OFFSET -32.2475 0.153859 1.63989
                  CHANNELS 3 Zrotation Xrotation Yrotation
                  JOINT Bip001_R_Finger0
                  {
                    OFFSET -6.04641 -2.20976 5.90317
                    CHANNELS 3 Zrotation Xrotation Yrotation
                    End Site
                    {
                      OFFSET -4.22376 -1.43895 0.60647
                    }
                  }
                  JOINT Bip001_R_Finger1
                  {
                    OFFSET -11.0826 -0.704794 -0.198182
                    CHANNELS 3 Zrotation Xrotation Yrotation
                    End Site
                    {
                      OFFSET -6.20028 -0.397504 -0.0787333
                    }
                  }
                }
              }
            }
          }
          JOINT Bip001_Head
          {
            OFFSET 1.09673e-005 11.2744 2.05948
            CHANNELS 3 Zrotation Xrotation Yrotation
            End Site
            {
              OFFSET 2.89576e-005 20.8808 -2.77728e-005
            }
          }
        }
      }
    }
  }
}
MOTION
Frames:	6
Frame Time:	0.04
31.5244 95.8204 -31.2607 0.81146 -3.07485 -1.11323 0.144222 2.32452 -0.58398 5.57831 0.711158 12.6846 0.342781 5.94713 -1.83845 -0.653566 -3.1242 0.0271817 0.698882 -4.11725 -0.127129 -4.93593 -2.28865 -0.521827 0.568104 11.3589 0.163669 -5.29166 -9.36181 2.12689 2.31973 -7.88317 2.46894 0.31256 4.64742 -1.17527 0.312561 4.64743 -1.17528 2.56021 -2.88486 1.56377 -24.6749 5.96773 -6.14182 -50.938 40.4237 -0.27792 14.9014 -4.94307 -29.7958 8.53896 0.209058 -5.14351 -6.36111e-015 -1.59028e-014 3.18055e-015 -3.18055e-015 -9.54167e-015 -0 22.0092 7.99056 13.142 64.032 28.59 -14.9288 -29.3662 14.6085 20.4959 -0.449806 -6.93626 4.19146 0 3.18055e-015 -0 -1.59028e-015 6.36111e-015 1.59028e-015 -2.23161 4.52097 2.78087 
31.4731 95.8207 -31.1494 0.676858 -3.1506 -1.79347 0.183444 2.35604 -0.654897 5.61793 1.03868 13.3202 0.370239 5.83618 -1.80996 -0.462833 -3.06529 0.0271802 0.772103 -4.26585 -0.173398 -4.84603 -2.24482 -0.133456 0.542382 11.2294 0.1808 -5.15475 -9.3543 2.45532 2.29791 -7.81633 2.43644 0.394356 4.70982 -1.31902 0.394355 4.70981 -1.31902 2.48741 -1.973 1.93594 -24.6507 5.28499 -6.80165 -52.256 40.5154 1.10231 14.9512 -4.59746 -29.7214 8.22242 -0.0507071 -5.09216 3.18055e-015 9.54166e-015 -0 0 9.54167e-015 -0 21.9473 6.76734 12.3923 64.3254 27.1674 -14.1927 -27.1126 12.2715 18.8779 -1.58917 -7.3757 4.04173 0 3.18055e-015 -0 -1.59028e-015 6.36111e-015 -0 -2.31233 3.78643 3.15698 
31.412 95.8108 -31.1599 0.36117 -3.00416 -2.31248 0.266454 2.37375 -0.773877 5.89497 0.774819 12.8219 0.310922 6.32046 -0.774836 -0.439006 -3.2718 0.0277766 0.749215 -4.32322 -0.119087 -4.59496 -2.40466 0.262111 0.556197 11.0045 0.235336 -5.12644 -9.2129 2.61589 2.28909 -7.78312 2.44344 0.567032 4.74364 -1.5623 0.566329 4.74366 -1.5616 2.04146 -1.69331 2.45771 -24.2007 5.12647 -7.01326 -53.5296 41.3318 2.21465 14.9557 -4.03035 -29.2077 8.6765 -0.0743016 -5.22268 4.41391e-031 3.18055e-015 -7.95139e-015 3.53113e-031 3.18056e-015 -6.36111e-015 22.0948 6.20755 11.9014 65.215 25.0478 -13.5776 -25.7119 9.35623 17.1874 -3.30462 -8.01774 3.48196 -3.18055e-015 0 -1.59028e-015 -4.77083e-015 -3.18056e-015 1.59028e-015 -2.07375 3.75116 3.48221 
31.3942 95.7852 -31.1449 0.115243 -3.03223 -2.86821 0.301658 2.44584 -0.76734 6.19622 0.589291 12.8476 0.207691 6.98467 -0.207624 -0.631004 -3.7645 0.0314324 0.694087 -4.23478 -0.089974 -4.4171 -2.51714 0.530529 0.582724 10.9681 0.209867 -5.10458 -9.18816 2.87225 2.29081 -7.80471 2.44544 0.639628 4.88736 -1.55001 0.639844 4.88735 -1.54983 1.67718 -1.85707 2.80177 -23.8046 5.36025 -7.12576 -54.3502 42.2825 2.95552 14.7788 -4.02561 -28.346 7.81929 -0.0201562 -5.26256 0 9.54166e-015 -0 3.18055e-015 3.18056e-015 1.59028e-015 22.3111 6.08683 11.197 65.8145 21.9926 -13.3958 -26.1581 8.74096 17.7706 -6.96139 -8.94312 2.53278 -7.95139e-015 -3.18055e-015 -1.59028e-015 -6.36111e-015 -3.18056e-015 -1.59028e-015 -1.88507 4.1614 3.66655 
31.4248 95.7492 -31.0657 -0.00745179 -3.12515 -3.26756 0.283273 2.50989 -0.747195 6.24227 0.662383 12.7014 0.137447 7.10019 0.14893 0.553361 -3.23068 0.00589043 1.20714 -5.09079 -0.464812 -4.31101 -2.62176 0.681342 0.562387 11.2091 0.235707 -5.10585 -9.30368 3.03293 2.29303 -7.80387 2.45032 0.599757 5.01585 -1.51005 0.599928 5.01586 -1.50953 1.61378 -1.34022 3.01958 -23.4844 4.89022 -7.36136 -55.5256 42.8215 4.0494 15.1206 -3.34655 -27.5334 6.9438 0.364143 -5.20305 6.36111e-015 6.36111e-015 -1.59028e-015 6.36111e-015 3.18056e-015 -1.59028e-015 22.3593 5.36271 10.6611 65.9737 16.9504 -13.95 -27.5121 4.83814 21.049 -8.63463 -9.22179 3.52081 -3.18055e-015 1.27222e-014 6.36111e-015 -1.59028e-015 1.59028e-014 3.18055e-015 -2.07762 3.6086 3.91394 
31.4685 95.6907 -30.9848 -0.100637 -3.15787 -3.35827 0.248412 2.54994 -0.821513 6.443 0.380097 13.2178 0.0869161 7.88386 -0.246164 0.920816 -3.53715 0.000515777 1.25741 -5.21407 -0.497345 -4.20304 -2.72773 1.0294 0.598815 11.482 0.188565 -5.22915 -9.42721 2.89343 2.33149 -7.92587 2.49037 0.535941 5.096 -1.6568 0.535942 5.09601 -1.6568 1.73255 -0.724326 3.51851 -23.2275 4.32671 -7.51904 -56.8487 42.4607 5.37042 15.7232 -1.87704 -27.2554 6.23028 0.721546 -4.87066 -3.18055e-015 3.18055e-015 -0 -3.18055e-015 0 -0 22.4159 4.48546 9.94258 65.5811 11.5959 -14.9947 -31.0089 4.92963 26.7005 -11.8677 -10.5689 4.5259 -7.95139e-015 -3.18055e-015 -3.18055e-015 -7.95139e-015 -6.36111e-015 -3.18055e-015 -2.83141 2.95012 4.62706 
